<svg id="Glyph" enable-background="new 0 0 64 64" height="512" viewBox="0 0 64 64" width="512" xmlns="http://www.w3.org/2000/svg"><path d="m55 48c-1.942 0-3.699.792-4.967 2.069l-18.26-13.548c.775-1.329 1.227-2.871 1.227-4.521 0-.705-.089-1.388-.243-2.047l16.05-5.695c1.173 2.224 3.504 3.742 6.193 3.742 3.866 0 7-3.134 7-7s-3.134-7-7-7-7 3.134-7 7c0 .471.048.93.137 1.374l-16.05 5.695c-.839-1.723-2.206-3.14-3.897-4.032l3.219-8.227c.512.121 1.043.19 1.591.19 3.866 0 7-3.134 7-7s-3.134-7-7-7-7 3.134-7 7c0 2.608 1.43 4.879 3.545 6.083l-3.221 8.231c-.742-.198-1.519-.314-2.324-.314-1.456 0-2.827.354-4.044.968l-6.337-9.717c1.457-1.283 2.381-3.157 2.381-5.251 0-3.866-3.134-7-7-7s-7 3.134-7 7 3.134 7 7 7c1.053 0 2.048-.239 2.944-.656l6.333 9.71c-2.002 1.651-3.277 4.15-3.277 6.946 0 2.659 1.16 5.041 2.994 6.689l-5.782 8.095c-.963-.498-2.053-.784-3.212-.784-3.866 0-7 3.134-7 7s3.134 7 7 7 7-3.134 7-7c0-1.988-.832-3.778-2.163-5.052l5.779-8.091c1.298.726 2.792 1.143 4.384 1.143 2.601 0 4.937-1.11 6.58-2.873l18.26 13.548c-.536.989-.84 2.121-.84 3.325 0 3.866 3.134 7 7 7s7-3.134 7-7-3.134-7-7-7zm-2.293-27.707 1.293 1.293 4.293-4.293 1.414 1.414-5.707 5.707-2.707-2.707zm-23.414-10.586 1.414-1.414 1.293 1.293 4.293-4.293 1.414 1.414-5.707 5.707zm-21.293 46.707-2.707-2.707 1.414-1.414 1.293 1.293 4.293-4.293 1.414 1.414z"/></svg>